<?xml version="1.0" standalone="no"?>
<!DOCTYPE svg PUBLIC "-//W3C//DTD SVG 20010904//EN"
 "http://www.w3.org/TR/2001/REC-SVG-20010904/DTD/svg10.dtd">
<svg version="1.0" xmlns="http://www.w3.org/2000/svg"
 width="529.000000pt" height="529.000000pt" viewBox="0 0 529.000000 529.000000"
 preserveAspectRatio="xMidYMid meet">
<metadata>
Created by potrace 1.11, written by Peter Selinger 2001-2013
</metadata>
<g transform="translate(0.000000,529.000000) scale(0.100000,-0.100000)"
fill="#000000" stroke="none">
<path d="M2295 5154 c-176 -63 -417 -148 -535 -190 -118 -42 -507 -179 -865
-306 -357 -126 -671 -237 -697 -246 -27 -9 -48 -22 -48 -29 0 -7 13 -127 30
-265 16 -139 57 -487 90 -773 33 -286 103 -889 155 -1339 52 -451 95 -823 95
-827 0 -8 -11 -2 405 -234 165 -92 399 -222 520 -290 1251 -698 1184 -662
1194 -647 4 6 285 165 626 352 341 188 663 365 715 394 52 30 240 133 418 231
177 97 322 182 322 189 0 6 92 724 205 1595 113 871 205 1594 205 1605 0 20
-96 55 -1122 411 -618 213 -1184 409 -1258 435 l-135 47 -320 -113z"/>
</g>
</svg>
