<svg xmlns="http://www.w3.org/2000/svg" viewBox="0 0 512 512"><path d="M45.997 69.191c0 7.727 6.264 13.991 13.991 13.991s13.991-6.264 13.991-13.991S67.715 55.2 59.987 55.2c-7.727 0-13.99 6.264-13.99 13.991z"/><circle cx="103.027" cy="69.191" r="13.991"/><circle cx="146.067" cy="69.191" r="13.991"/><path d="M130.805 275.375a7.52 7.52 0 006.988-4.742l41.818-105.14a7.518 7.518 0 10-13.972-5.557l-41.818 105.14a7.518 7.518 0 006.984 10.299zM212.373 269.319a7.518 7.518 0 0010.274-2.737l28.081-48.48a7.518 7.518 0 00-.068-7.65l-28.081-46.578a7.518 7.518 0 10-12.877 7.763l25.786 42.773-25.854 44.635a7.518 7.518 0 002.739 10.274zM94.575 259.045L68.721 214.41l25.786-42.773a7.517 7.517 0 00-2.557-10.32 7.52 7.52 0 00-10.32 2.557l-28.081 46.578a7.518 7.518 0 00-.068 7.65l28.081 48.48a7.516 7.516 0 0010.274 2.737 7.517 7.517 0 002.739-10.274zM377.032 368.721a7.519 7.519 0 00-8.873 5.858c-2.799 13.675-14.982 23.601-28.968 23.601-16.303 0-29.567-13.264-29.567-29.568s13.264-29.568 29.567-29.568a29.53 29.53 0 0119.599 7.428 7.519 7.519 0 009.972-11.255 44.55 44.55 0 00-29.57-11.21c-24.595 0-44.604 20.01-44.604 44.605s20.009 44.604 44.604 44.604c21.096 0 39.475-14.981 43.699-35.622a7.52 7.52 0 00-5.859-8.873zM455.049 172.682c-13.65-5.577-29.294.993-34.869 14.644-2.701 6.612-2.666 13.881.101 20.467 2.766 6.586 6.682 10.542 14.543 14.402 11.364 5.58 29.636-.706 34.868-14.643 4.591-12.228-.688-29.66-14.643-34.87zm-10.113 36.502c-6.476 0-11.726-5.25-11.726-11.726s5.25-11.726 11.726-11.726 11.726 5.25 11.726 11.726-5.25 11.726-11.726 11.726z"/><path d="M505.005 201.207l-4.518-1.846a54.903 54.903 0 00-.023-4.389l4.499-1.89c5.72-2.401 8.419-9.008 6.018-14.729l-6.176-14.706c-2.3-4.784-7.468-8.406-14.729-6.018l-4.5 1.889a55.772 55.772 0 00-3.119-3.09l1.844-4.514c1.751-4.023.387-12.136-6.16-14.672l-14.766-6.032c-4.021-1.75-12.137-.384-14.671 6.161l-1.845 4.517a54.905 54.905 0 00-4.389.023l-1.889-4.498a11.177 11.177 0 00-6.119-6.061 11.167 11.167 0 00-6.207-.658V57.345c0-21.341-17.363-38.704-38.704-38.704h-15.759a7.518 7.518 0 000 15.036h15.759c13.05 0 23.667 10.617 23.667 23.667v47.36H15.037v-47.36c0-13.05 10.617-23.667 23.667-23.667h300.111a7.518 7.518 0 000-15.036H38.704C17.363 18.642 0 36.004 0 57.345v315.878c0 21.341 17.363 38.704 38.704 38.704h28.26a7.518 7.518 0 000-15.036h-28.26c-13.05 0-23.667-10.617-23.667-23.667V119.741h398.182v16.957l-2.076.872c-5.718 2.402-8.417 9.01-6.016 14.729l1.889 4.5a56.075 56.075 0 00-3.089 3.118l-4.517-1.845c-5.739-2.347-12.323.415-14.671 6.161l-6.03 14.764c-1.752 4.023-.386 12.137 6.161 14.671l4.516 1.845a55.401 55.401 0 00.023 4.39l-4.499 1.89c-4.783 2.301-8.405 7.47-6.017 14.73l6.175 14.704c2.302 4.785 7.467 8.407 14.73 6.019l4.5-1.89a55.75 55.75 0 003.118 3.09l-1.845 4.518c-2.346 5.743.419 12.323 6.161 14.669l1.487.607v8.8a14.628 14.628 0 00-7.106-1.831 14.627 14.627 0 00-10.409 4.312l-10.191 10.191a99.548 99.548 0 00-16.216-6.721v-14.409c0-8.116-6.603-14.719-14.719-14.719h-30.771c-8.116 0-14.72 6.603-14.72 14.719v14.409a99.626 99.626 0 00-16.215 6.721l-10.191-10.191c-5.739-5.739-15.075-5.74-20.817 0l-21.759 21.759c-5.739 5.739-5.739 15.078 0 20.817l10.191 10.191a99.57 99.57 0 00-6.72 16.215h-14.408c-8.116 0-14.72 6.603-14.72 14.719v30.772c0 5.547 3.087 10.384 7.631 12.893H101.673a7.518 7.518 0 000 15.036h147.134a98.581 98.581 0 001.486 3.006l-10.191 10.191c-2.78 2.78-4.311 6.477-4.311 10.409s1.532 7.628 4.311 10.408l21.759 21.76c5.743 5.741 15.079 5.74 20.817 0l10.191-10.192a99.61 99.61 0 0016.215 6.721v14.409c0 8.116 6.604 14.719 14.72 14.719h30.771c8.116 0 14.719-6.603 14.719-14.719V464.23a99.548 99.548 0 0016.216-6.721l10.191 10.192a14.627 14.627 0 0010.409 4.312c3.932 0 7.629-1.532 10.408-4.312l21.758-21.759c2.78-2.78 4.312-6.477 4.312-10.409s-1.531-7.628-4.312-10.409l-10.191-10.191a99.552 99.552 0 006.721-16.215h14.408c8.116 0 14.72-6.603 14.72-14.72v-30.772c0-8.116-6.604-14.719-14.72-14.719h-14.408a99.604 99.604 0 00-6.721-16.215L438.28 312.1c5.739-5.739 5.739-15.078 0-20.817l-10.024-10.024v-17.045c3.691 1.035 10.685-.917 12.912-6.706l1.845-4.517c1.461.051 2.926.043 4.39-.023l1.89 4.502c2.403 5.72 9.009 8.416 14.729 6.015l14.705-6.176c4.784-2.3 8.408-7.468 6.019-14.73l-1.889-4.5a56.093 56.093 0 003.09-3.118l4.517 1.845c4.022 1.75 12.136.384 14.671-6.161l6.032-14.767c2.343-5.744-.421-12.324-6.162-14.671zm-75.883 152.336h19.779v30.138h-19.779a7.518 7.518 0 00-7.293 5.692 84.583 84.583 0 01-9.528 22.987 7.517 7.517 0 001.132 9.184l13.99 13.99-21.312 21.311-13.989-13.99a7.518 7.518 0 00-9.184-1.132 84.63 84.63 0 01-22.987 9.528 7.518 7.518 0 00-5.693 7.293v19.779H324.12v-19.779a7.518 7.518 0 00-5.693-7.293 84.587 84.587 0 01-22.986-9.528 7.52 7.52 0 00-9.184 1.132l-13.989 13.99-21.312-21.311 13.99-13.99a7.517 7.517 0 001.131-9.183 84.596 84.596 0 01-9.527-22.987 7.518 7.518 0 00-7.293-5.692h-19.779v-30.138h19.779a7.519 7.519 0 007.293-5.692 84.59 84.59 0 019.527-22.986 7.519 7.519 0 00-1.131-9.184l-13.99-13.99 21.311-21.311 13.99 13.99a7.518 7.518 0 009.184 1.131 84.608 84.608 0 0122.986-9.527 7.518 7.518 0 005.693-7.293v-19.779h30.138v19.779a7.518 7.518 0 005.693 7.293 84.633 84.633 0 0122.987 9.527 7.519 7.519 0 009.184-1.131l13.989-13.99 21.312 21.311-13.991 13.99a7.518 7.518 0 00-1.131 9.184 84.582 84.582 0 019.528 22.986 7.519 7.519 0 007.293 5.691zm63.522-132.09l-6.139-2.507a7.516 7.516 0 00-8.904 2.511 40.278 40.278 0 01-8.329 8.407 7.518 7.518 0 00-2.426 8.929l2.569 6.117-7.726 3.245-2.569-6.117a7.52 7.52 0 00-8.074-4.52 40.18 40.18 0 01-11.833.061 7.515 7.515 0 00-8.028 4.599l-2.507 6.139-7.757-3.169 2.508-6.138a7.52 7.52 0 00-2.512-8.904 40.253 40.253 0 01-8.407-8.329 7.517 7.517 0 00-8.929-2.425l-6.115 2.569-3.245-7.726 6.116-2.569a7.518 7.518 0 004.52-8.074 40.25 40.25 0 01-.061-11.833 7.519 7.519 0 00-4.599-8.028l-6.138-2.508 3.169-7.757 6.139 2.508a7.518 7.518 0 008.904-2.511 40.293 40.293 0 018.328-8.406 7.518 7.518 0 002.426-8.929l-2.569-6.117 7.726-3.245 2.57 6.117a7.516 7.516 0 008.073 4.52 40.25 40.25 0 0111.833-.061 7.516 7.516 0 008.027-4.599l2.507-6.138 7.757 3.168-2.507 6.139a7.52 7.52 0 002.511 8.904 40.22 40.22 0 018.406 8.328 7.515 7.515 0 008.929 2.426l6.117-2.569 3.245 7.726-6.117 2.569a7.519 7.519 0 00-4.52 8.074 40.29 40.29 0 01.062 11.834 7.518 7.518 0 004.599 8.026l6.138 2.508z"/></svg>
