<svg xmlns="http://www.w3.org/2000/svg" viewBox="0 0 512 512"><path d="M362.264 0H149.736c-30.134 0-54.65 24.521-54.65 54.66v402.681c0 30.139 24.516 54.66 54.65 54.66h212.528c30.134 0 54.65-24.521 54.65-54.66V54.66c0-30.139-24.516-54.66-54.65-54.66zm33.752 457.34c0 18.617-15.141 33.762-33.752 33.762H149.736c-18.612 0-33.752-15.145-33.752-33.762v-11.35h280.033v11.35zm0-32.248H115.984V84.266h280.033v340.826zm0-361.724H115.984V54.66c0-18.616 15.141-33.762 33.752-33.762h212.528c18.612 0 33.752 15.146 33.752 33.762v8.708z"/><path d="M256 448.073c-11.287 0-20.469 9.184-20.469 20.472s9.182 20.472 20.469 20.472 20.47-9.184 20.47-20.472c0-11.288-9.183-20.472-20.47-20.472zm0 20.898a.428.428 0 01-.428-.426.428.428 0 01.857 0 .429.429 0 01-.429.426zM272.367 152.901c-5.667-1.111-11.154 2.579-12.265 8.242l-32.317 164.698c-1.111 5.663 2.579 11.154 8.241 12.265.679.134 1.356.197 2.024.197 4.894 0 9.264-3.457 10.242-8.439l32.317-164.7c1.11-5.661-2.579-11.152-8.242-12.263zM354.093 245.746c-.008-.171-.008-.343-.025-.514-.016-.161-.046-.321-.069-.482-.024-.171-.042-.343-.074-.512-.032-.165-.079-.327-.12-.491-.04-.163-.072-.327-.119-.488-.048-.162-.112-.32-.167-.479-.055-.16-.103-.321-.167-.479-.059-.144-.132-.282-.196-.424-.077-.168-.147-.34-.234-.505-.063-.119-.139-.233-.207-.35-.104-.181-.204-.365-.32-.54-.065-.098-.142-.19-.21-.286-.134-.188-.264-.378-.412-.559-.06-.073-.13-.14-.191-.212-.168-.195-.335-.391-.52-.576l-48.454-48.506c-4.078-4.082-10.695-4.087-14.778-.007-4.082 4.078-4.086 10.695-.008 14.777l41.077 41.121-40.35 40.393c-4.077 4.082-4.074 10.699.008 14.778a10.416 10.416 0 007.384 3.056c2.676 0 5.352-1.022 7.393-3.065l47.727-47.778c.185-.185.352-.381.52-.576.062-.072.132-.139.191-.212.147-.181.278-.371.412-.559.068-.096.145-.188.21-.286.116-.176.215-.359.32-.54.068-.117.144-.231.207-.35.087-.165.157-.335.234-.505.065-.141.138-.28.196-.424.064-.157.112-.319.167-.479.055-.16.119-.318.167-.479.048-.161.079-.326.119-.488.04-.164.088-.326.12-.491.032-.169.05-.342.074-.512.023-.161.053-.32.069-.482.017-.17.017-.343.025-.514.007-.163.023-.325.023-.488 0-.162-.015-.324-.022-.487zM220.125 286.627l-41.076-41.121 40.349-40.393c4.078-4.083 4.074-10.699-.008-14.777-4.083-4.079-10.698-4.075-14.778.007l-47.726 47.778c-.179.179-.34.369-.503.557-.068.078-.143.151-.209.231-.136.167-.255.343-.379.516-.079.111-.168.217-.242.33-.102.156-.189.318-.282.477-.082.138-.17.273-.245.414-.074.141-.133.286-.2.429-.077.166-.162.329-.231.498-.054.133-.093.27-.141.403-.066.184-.138.367-.193.554-.043.142-.07.287-.106.432-.046.183-.098.364-.134.548-.031.16-.046.321-.07.482-.025.171-.057.341-.074.512-.016.168-.017.336-.024.506-.007.165-.023.33-.023.496s.016.331.023.496c.008.168.008.338.024.506.016.168.048.335.072.504.024.164.04.328.071.49.033.174.084.346.126.519.038.154.068.308.113.46.05.171.117.338.177.507.053.151.098.303.158.45.062.15.138.297.207.445.074.161.141.325.225.483.066.124.145.242.215.365.101.177.198.354.311.526.065.098.142.19.21.286.134.188.264.378.412.559.06.073.13.14.191.212.168.195.335.391.52.576l48.454 48.506a10.418 10.418 0 007.393 3.065c2.673 0 5.345-1.019 7.384-3.056 4.083-4.078 4.086-10.694.009-14.778z"/></svg>
